<?xml version="1.0" encoding="utf-8"?>
<svg version="1.1" xmlns:xlink="http://www.w3.org/1999/xlink" width="78px" height="76px" xmlns="http://www.w3.org/2000/svg">
  <g transform="matrix(1 0 0 1 -67 -484 )">
    <path d="M 67 484  L 145 484  L 145 560  L 67 560  L 67 484  " fill-rule="nonzero" fill="#cccccc" stroke="none" />
    <path d="M 72 489  L 140 489  L 140 555  L 72 555  L 72 489  " fill-rule="nonzero" fill="#ffffff" stroke="none" />
    <path d="M 113.26 506.8  C 110.068 506.8  107.56 504.292  107.56 501.1  C 107.56 497.908  110.068 495.4  113.26 495.4  C 116.452 495.4  118.96 497.908  118.96 501.1  C 118.96 504.292  116.452 506.8  113.26 506.8  " fill-rule="nonzero" fill="#cccccc" stroke="none" />
    <path d="M 74 553  L 74 518.9  L 90 503.4  L 112.4 516.753846153846  L 125.2 512.7  L 138 516.753846153846  L 138 553  L 74 553  " fill-rule="nonzero" fill="#169bd5" stroke="none" />
  </g>
</svg>