<?xml version="1.0" encoding="utf-8"?>
<svg version="1.1" xmlns:xlink="http://www.w3.org/1999/xlink" width="122px" height="45px" xmlns="http://www.w3.org/2000/svg">
  <defs>
    <linearGradient gradientUnits="userSpaceOnUse" x1="395" y1="248" x2="395" y2="293" id="LinearGradient881">
      <stop id="Stop882" stop-color="#3889ff" offset="0" />
      <stop id="Stop883" stop-color="#0000ff" offset="1" />
    </linearGradient>
  </defs>
  <g transform="matrix(1 0 0 1 -334 -248 )">
    <path d="M 334.5 250  A 1.5 1.5 0 0 1 336 248.5 L 454 248.5  A 1.5 1.5 0 0 1 455.5 250 L 455.5 291  A 1.5 1.5 0 0 1 454 292.5 L 336 292.5  A 1.5 1.5 0 0 1 334.5 291 L 334.5 250  Z " fill-rule="nonzero" fill="#ffffff" stroke="none" />
    <path d="M 334.5 250  A 1.5 1.5 0 0 1 336 248.5 L 454 248.5  A 1.5 1.5 0 0 1 455.5 250 L 455.5 291  A 1.5 1.5 0 0 1 454 292.5 L 336 292.5  A 1.5 1.5 0 0 1 334.5 291 L 334.5 250  Z " stroke-width="1" stroke="url(#LinearGradient881)" fill="none" />
  </g>
</svg>