<?xml version="1.0" encoding="utf-8"?>
<svg version="1.1" xmlns:xlink="http://www.w3.org/1999/xlink" width="198px" height="179px" xmlns="http://www.w3.org/2000/svg">
  <defs>
    <linearGradient gradientUnits="userSpaceOnUse" x1="377.998967462044" y1="358.211042620954" x2="412.001032537956" y2="568.788957379046" id="LinearGradient290">
      <stop id="Stop291" stop-color="#409eff" offset="0" />
      <stop id="Stop292" stop-color="#409eff" offset="0.5" />
      <stop id="Stop293" stop-color="#0066ff" offset="1" />
    </linearGradient>
  </defs>
  <g transform="matrix(1 0 0 1 -296 -374 )">
    <path d="M 296.5 376  A 1.5 1.5 0 0 1 298 374.5 L 492 374.5  A 1.5 1.5 0 0 1 493.5 376 L 493.5 551  A 1.5 1.5 0 0 1 492 552.5 L 298 552.5  A 1.5 1.5 0 0 1 296.5 551 L 296.5 376  Z " fill-rule="nonzero" fill="#ffffff" stroke="none" />
    <path d="M 296.5 376  A 1.5 1.5 0 0 1 298 374.5 L 492 374.5  A 1.5 1.5 0 0 1 493.5 376 L 493.5 551  A 1.5 1.5 0 0 1 492 552.5 L 298 552.5  A 1.5 1.5 0 0 1 296.5 551 L 296.5 376  Z " stroke-width="1" stroke="url(#LinearGradient290)" fill="none" />
  </g>
</svg>