<?xml version="1.0" encoding="utf-8"?>
<svg version="1.1" xmlns:xlink="http://www.w3.org/1999/xlink" width="122px" height="45px" xmlns="http://www.w3.org/2000/svg">
  <defs>
    <linearGradient gradientUnits="userSpaceOnUse" x1="678.632994906155" y1="231.026977919472" x2="707.367005093845" y2="309.973022080528" id="LinearGradient16">
      <stop id="Stop17" stop-color="#ff0000" offset="0" />
      <stop id="Stop18" stop-color="#f78989" offset="1" />
    </linearGradient>
  </defs>
  <g transform="matrix(1 0 0 1 -632 -248 )">
    <path d="M 632.5 250  A 1.5 1.5 0 0 1 634 248.5 L 752 248.5  A 1.5 1.5 0 0 1 753.5 250 L 753.5 291  A 1.5 1.5 0 0 1 752 292.5 L 634 292.5  A 1.5 1.5 0 0 1 632.5 291 L 632.5 250  Z " fill-rule="nonzero" fill="#ffffff" stroke="none" />
    <path d="M 632.5 250  A 1.5 1.5 0 0 1 634 248.5 L 752 248.5  A 1.5 1.5 0 0 1 753.5 250 L 753.5 291  A 1.5 1.5 0 0 1 752 292.5 L 634 292.5  A 1.5 1.5 0 0 1 632.5 291 L 632.5 250  Z " stroke-width="1" stroke="url(#LinearGradient16)" fill="none" />
  </g>
</svg>