<?xml version="1.0" encoding="utf-8"?>
<svg version="1.1" xmlns:xlink="http://www.w3.org/1999/xlink" width="198px" height="179px" xmlns="http://www.w3.org/2000/svg">
  <defs>
    <linearGradient gradientUnits="userSpaceOnUse" x1="637.878797109833" y1="363.449120203657" x2="748.121202890167" y2="563.550879796343" id="LinearGradient19">
      <stop id="Stop20" stop-color="#ff0000" offset="0" />
      <stop id="Stop21" stop-color="#f78989" offset="1" />
    </linearGradient>
  </defs>
  <g transform="matrix(1 0 0 1 -594 -374 )">
    <path d="M 594.5 376  A 1.5 1.5 0 0 1 596 374.5 L 790 374.5  A 1.5 1.5 0 0 1 791.5 376 L 791.5 551  A 1.5 1.5 0 0 1 790 552.5 L 596 552.5  A 1.5 1.5 0 0 1 594.5 551 L 594.5 376  Z " fill-rule="nonzero" fill="#ffffff" stroke="none" />
    <path d="M 594.5 376  A 1.5 1.5 0 0 1 596 374.5 L 790 374.5  A 1.5 1.5 0 0 1 791.5 376 L 791.5 551  A 1.5 1.5 0 0 1 790 552.5 L 596 552.5  A 1.5 1.5 0 0 1 594.5 551 L 594.5 376  Z " stroke-width="1" stroke="url(#LinearGradient19)" fill="none" />
  </g>
</svg>