<?xml version="1.0" encoding="utf-8"?>
<svg version="1.1" xmlns:xlink="http://www.w3.org/1999/xlink" width="198px" height="179px" xmlns="http://www.w3.org/2000/svg">
  <defs>
    <linearGradient gradientUnits="userSpaceOnUse" x1="935.878797109833" y1="363.449120203657" x2="1046.12120289017" y2="563.550879796343" id="LinearGradient894">
      <stop id="Stop895" stop-color="#ff0000" offset="0" />
      <stop id="Stop896" stop-color="#f78989" offset="1" />
    </linearGradient>
  </defs>
  <g transform="matrix(1 0 0 1 -892 -374 )">
    <path d="M 894.5 376.5  L 1087.5 376.5  L 1087.5 550.5  L 894.5 550.5  L 894.5 376.5  Z " fill-rule="nonzero" fill="#ffffff" stroke="none" />
    <path d="M 893.5 376  A 0.5 0.5 0 0 1 894 375.5 L 1088 375.5  A 0.5 0.5 0 0 1 1088.5 376 L 1088.5 551  A 0.5 0.5 0 0 1 1088 551.5 L 894 551.5  A 0.5 0.5 0 0 1 893.5 551 L 893.5 376  Z " stroke-width="3" stroke="url(#LinearGradient894)" fill="none" />
  </g>
</svg>