<?xml version="1.0" encoding="utf-8"?>
<svg version="1.1" xmlns:xlink="http://www.w3.org/1999/xlink" width="1092px" height="215px" xmlns="http://www.w3.org/2000/svg">
  <defs>
    <linearGradient gradientUnits="userSpaceOnUse" x1="713.403528176406" y1="558.906672281922" x2="970.596471823594" y2="936.093327718078" id="LinearGradient303">
      <stop id="Stop304" stop-color="#ff0000" offset="0" />
      <stop id="Stop305" stop-color="#f78989" offset="1" />
    </linearGradient>
  </defs>
  <g transform="matrix(1 0 0 1 -296 -640 )">
    <path d="M 297 642  A 1 1 0 0 1 298 641 L 1386 641  A 1 1 0 0 1 1387 642 L 1387 853  A 1 1 0 0 1 1386 854 L 298 854  A 1 1 0 0 1 297 853 L 297 642  Z " fill-rule="nonzero" fill="#ffffff" stroke="none" />
    <path d="M 296.5 642  A 1.5 1.5 0 0 1 298 640.5 L 1386 640.5  A 1.5 1.5 0 0 1 1387.5 642 L 1387.5 853  A 1.5 1.5 0 0 1 1386 854.5 L 298 854.5  A 1.5 1.5 0 0 1 296.5 853 L 296.5 642  Z " stroke-width="1" stroke-dasharray="3,1" stroke="url(#LinearGradient303)" fill="none" stroke-dashoffset="0.5" />
  </g>
</svg>