<?xml version="1.0" encoding="utf-8"?>
<svg version="1.1" xmlns:xlink="http://www.w3.org/1999/xlink" width="1092px" height="111px" xmlns="http://www.w3.org/2000/svg">
  <defs>
    <linearGradient gradientUnits="userSpaceOnUse" x1="713.403528176406" y1="884.133212201364" x2="970.596471823594" y2="1078.86678779864" id="LinearGradient306">
      <stop id="Stop307" stop-color="#ff0000" offset="0" />
      <stop id="Stop308" stop-color="#f78989" offset="1" />
    </linearGradient>
  </defs>
  <g transform="matrix(1 0 0 1 -296 -926 )">
    <path d="M 297 928  A 1 1 0 0 1 298 927 L 1386 927  A 1 1 0 0 1 1387 928 L 1387 1035  A 1 1 0 0 1 1386 1036 L 298 1036  A 1 1 0 0 1 297 1035 L 297 928  Z " fill-rule="nonzero" fill="#ffffff" stroke="none" />
    <path d="M 296.5 928  A 1.5 1.5 0 0 1 298 926.5 L 1386 926.5  A 1.5 1.5 0 0 1 1387.5 928 L 1387.5 1035  A 1.5 1.5 0 0 1 1386 1036.5 L 298 1036.5  A 1.5 1.5 0 0 1 296.5 1035 L 296.5 928  Z " stroke-width="1" stroke-dasharray="3,1" stroke="url(#LinearGradient306)" fill="none" stroke-dashoffset="0.5" />
  </g>
</svg>