<?xml version="1.0" encoding="utf-8"?>
<svg version="1.1" xmlns:xlink="http://www.w3.org/1999/xlink" width="148px" height="40px" xmlns="http://www.w3.org/2000/svg">
  <defs>
    <linearGradient gradientUnits="userSpaceOnUse" x1="1150" y1="688" x2="1150" y2="728" id="LinearGradient1003">
      <stop id="Stop1004" stop-color="#ec808d" offset="0" />
      <stop id="Stop1005" stop-color="#e23e52" offset="0.51" />
      <stop id="Stop1006" stop-color="#d9001b" offset="1" />
    </linearGradient>
  </defs>
  <g transform="matrix(1 0 0 1 -1076 -688 )">
    <path d="M 1076.5 690  A 1.5 1.5 0 0 1 1078 688.5 L 1222 688.5  A 1.5 1.5 0 0 1 1223.5 690 L 1223.5 726  A 1.5 1.5 0 0 1 1222 727.5 L 1078 727.5  A 1.5 1.5 0 0 1 1076.5 726 L 1076.5 690  Z " fill-rule="nonzero" fill="#ffffff" stroke="none" />
    <path d="M 1076.5 690  A 1.5 1.5 0 0 1 1078 688.5 L 1222 688.5  A 1.5 1.5 0 0 1 1223.5 690 L 1223.5 726  A 1.5 1.5 0 0 1 1222 727.5 L 1078 727.5  A 1.5 1.5 0 0 1 1076.5 726 L 1076.5 690  Z " stroke-width="1" stroke="url(#LinearGradient1003)" fill="none" />
  </g>
</svg>