<?xml version="1.0" encoding="utf-8"?>
<svg version="1.1" xmlns:xlink="http://www.w3.org/1999/xlink" width="30px" height="30px" xmlns="http://www.w3.org/2000/svg">
  <g transform="matrix(1 0 0 1 -379 -587 )">
    <path d="M 394 587  C 402.4 587  409 593.6  409 602  C 409 610.4  402.4 617  394 617  C 385.6 617  379 610.4  379 602  C 379 593.6  385.6 587  394 587  Z " fill-rule="nonzero" fill="#ffffff" stroke="none" />
    <path d="M 394 587.5  C 402.12 587.5  408.5 593.88  408.5 602  C 408.5 610.12  402.12 616.5  394 616.5  C 385.88 616.5  379.5 610.12  379.5 602  C 379.5 593.88  385.88 587.5  394 587.5  Z " stroke-width="1" stroke="#cccccc" fill="none" />
  </g>
</svg>