<?xml version="1.0" encoding="utf-8"?>
<svg version="1.1" xmlns:xlink="http://www.w3.org/1999/xlink" width="152px" height="123px" xmlns="http://www.w3.org/2000/svg">
  <defs>
    <linearGradient gradientUnits="userSpaceOnUse" x1="171.34396984066" y1="310.768204206003" x2="228.65603015934" y2="468.231795793997" id="LinearGradient328">
      <stop id="Stop329" stop-color="#ff0000" offset="0" />
      <stop id="Stop330" stop-color="#f78989" offset="1" />
    </linearGradient>
  </defs>
  <g transform="matrix(1 0 0 1 -124 -328 )">
    <path d="M 124.5 330  A 1.5 1.5 0 0 1 126 328.5 L 274 328.5  A 1.5 1.5 0 0 1 275.5 330 L 275.5 449  A 1.5 1.5 0 0 1 274 450.5 L 126 450.5  A 1.5 1.5 0 0 1 124.5 449 L 124.5 330  Z " fill-rule="nonzero" fill="#ffffff" stroke="none" />
    <path d="M 124.5 330  A 1.5 1.5 0 0 1 126 328.5 L 274 328.5  A 1.5 1.5 0 0 1 275.5 330 L 275.5 449  A 1.5 1.5 0 0 1 274 450.5 L 126 450.5  A 1.5 1.5 0 0 1 124.5 449 L 124.5 330  Z " stroke-width="1" stroke="url(#LinearGradient328)" fill="none" />
  </g>
</svg>