<?xml version="1.0" encoding="utf-8"?>
<svg version="1.1" xmlns:xlink="http://www.w3.org/1999/xlink" width="965px" height="76px" xmlns="http://www.w3.org/2000/svg">
  <defs>
    <linearGradient gradientUnits="userSpaceOnUse" x1="537.845257318409" y1="382.372644743862" x2="675.154742681591" y2="759.627355256138" id="LinearGradient925">
      <stop id="Stop926" stop-color="#ff0000" offset="0" />
      <stop id="Stop927" stop-color="#f78989" offset="1" />
    </linearGradient>
  </defs>
  <g transform="matrix(1 0 0 1 -124 -533 )">
    <path d="M 125 535  A 1 1 0 0 1 126 534 L 1087 534  A 1 1 0 0 1 1088 535 L 1088 607  A 1 1 0 0 1 1087 608 L 126 608  A 1 1 0 0 1 125 607 L 125 535  Z " fill-rule="nonzero" fill="#ffffff" stroke="none" />
    <path d="M 124.5 535  A 1.5 1.5 0 0 1 126 533.5 L 1087 533.5  A 1.5 1.5 0 0 1 1088.5 535 L 1088.5 607  A 1.5 1.5 0 0 1 1087 608.5 L 126 608.5  A 1.5 1.5 0 0 1 124.5 607 L 124.5 535  Z " stroke-width="1" stroke-dasharray="3,1" stroke="url(#LinearGradient925)" fill="none" stroke-dashoffset="0.5" />
  </g>
</svg>