<?xml version="1.0" encoding="utf-8"?>
<svg version="1.1" xmlns:xlink="http://www.w3.org/1999/xlink" width="167px" height="28px" xmlns="http://www.w3.org/2000/svg">
  <g transform="matrix(1 0 0 1 -56 -773 )">
    <path d="M 57 776  A 2 2 0 0 1 59 774 L 220 774  A 2 2 0 0 1 222 776 L 222 798  A 2 2 0 0 1 220 800 L 59 800  A 2 2 0 0 1 57 798 L 57 776  Z " fill-rule="nonzero" fill="#ffffff" stroke="none" />
    <path d="M 56.5 776  A 2.5 2.5 0 0 1 59 773.5 L 220 773.5  A 2.5 2.5 0 0 1 222.5 776 L 222.5 798  A 2.5 2.5 0 0 1 220 800.5 L 59 800.5  A 2.5 2.5 0 0 1 56.5 798 L 56.5 776  Z " stroke-width="1" stroke="#4b92e3" fill="none" stroke-opacity="0.619607843137255" />
  </g>
</svg>