<?xml version="1.0" encoding="utf-8"?>
<svg version="1.1" xmlns:xlink="http://www.w3.org/1999/xlink" width="50px" height="50px" xmlns="http://www.w3.org/2000/svg">
  <g transform="matrix(1 0 0 1 -824 -581 )">
    <path d="M 849 582.5  C 862.16 582.5  872.5 592.84  872.5 606  C 872.5 619.16  862.16 629.5  849 629.5  C 835.84 629.5  825.5 619.16  825.5 606  C 825.5 592.84  835.84 582.5  849 582.5  Z " fill-rule="nonzero" fill="#ffffff" stroke="none" />
    <path d="M 849 582  C 862.44 582  873 592.56  873 606  C 873 619.44  862.44 630  849 630  C 835.56 630  825 619.44  825 606  C 825 592.56  835.56 582  849 582  Z " stroke-width="2" stroke="#7f7f7f" fill="none" stroke-opacity="0.435294117647059" />
  </g>
</svg>