<?xml version="1.0" encoding="utf-8"?>
<svg version="1.1" xmlns:xlink="http://www.w3.org/1999/xlink" width="50px" height="50px" xmlns="http://www.w3.org/2000/svg">
  <g transform="matrix(1 0 0 1 -826 -582 )">
    <path d="M 851 583.5  C 864.16 583.5  874.5 593.84  874.5 607  C 874.5 620.16  864.16 630.5  851 630.5  C 837.84 630.5  827.5 620.16  827.5 607  C 827.5 593.84  837.84 583.5  851 583.5  Z " fill-rule="nonzero" fill="#ffffff" stroke="none" />
    <path d="M 851 583  C 864.44 583  875 593.56  875 607  C 875 620.44  864.44 631  851 631  C 837.56 631  827 620.44  827 607  C 827 593.56  837.56 583  851 583  Z " stroke-width="2" stroke="#2486ff" fill="none" stroke-opacity="0.435294117647059" />
  </g>
</svg>