<svg t="1600334379318" class="icon" viewBox="0 0 1024 1024" version="1.1" xmlns="http://www.w3.org/2000/svg" p-id="10204" width="200" height="200"><path d="M1006.5408 373.0432c-68.608-135.5776-268.544-225.8432-495.3088-225.8432-226.1504 0-425.6768 89.8048-494.7456 224.8704a38.4 38.4 0 1 0 68.352 34.9696c53.9648-105.472 226.304-183.04 426.3936-183.04 200.6016 0 373.248 77.9776 426.752 183.7568a38.4 38.4 0 1 0 68.5568-34.7136z" fill="#cdcdcd" p-id="10205"></path><path d="M854.3744 563.3024C806.7584 457.3696 668.3136 387.072 512 387.072c-155.8528 0-294.0416 69.9392-342.016 175.4624a38.4 38.4 0 0 0 69.9392 31.744C273.92 519.4752 383.744 463.872 512 463.872c128.5632 0 238.592 55.808 272.3328 130.9184a38.4 38.4 0 1 0 70.0416-31.488zM673.024 698.2144c-25.0368-44.544-89.7536-70.8096-161.536-70.8096-71.6288 0-136.192 26.1632-161.3312 70.4a38.4 38.4 0 1 0 66.7648 37.9904c9.0112-15.872 47.7696-31.5904 94.5664-31.5904 46.848 0 85.6576 15.7696 94.5664 31.6416a38.4 38.4 0 0 0 66.9696-37.632z" fill="#cdcdcd" p-id="10206"></path><path d="M512 921.6a51.2 51.2 0 1 0 0-102.4 51.2 51.2 0 0 0 0 102.4z" fill="#cdcdcd" p-id="10207"></path></svg>