<?xml version="1.0" encoding="utf-8"?>
<svg version="1.1" xmlns:xlink="http://www.w3.org/1999/xlink" width="25px" height="25px" xmlns="http://www.w3.org/2000/svg">
  <defs>
    <linearGradient gradientUnits="userSpaceOnUse" x1="112.402791893289" y1="119.032999106789" x2="114.597208106711" y2="155.967000893211" id="LinearGradient464">
      <stop id="Stop465" stop-color="#409eff" offset="0" />
      <stop id="Stop466" stop-color="#409eff" offset="0.5" />
      <stop id="Stop467" stop-color="#0066ff" stop-opacity="0.654901960784314" offset="0.99" />
      <stop id="Stop468" stop-color="#0066ff" stop-opacity="0.698039215686274" offset="1" />
    </linearGradient>
  </defs>
  <g transform="matrix(1 0 0 1 -101 -125 )">
    <path d="M 113.5 125  C 120.5 125  126 130.5  126 137.5  C 126 144.5  120.5 150  113.5 150  C 106.5 150  101 144.5  101 137.5  C 101 130.5  106.5 125  113.5 125  Z " fill-rule="nonzero" fill="#409eff" stroke="none" />
    <path d="M 113.5 125.5  C 120.22 125.5  125.5 130.78  125.5 137.5  C 125.5 144.22  120.22 149.5  113.5 149.5  C 106.78 149.5  101.5 144.22  101.5 137.5  C 101.5 130.78  106.78 125.5  113.5 125.5  Z " stroke-width="1" stroke="url(#LinearGradient464)" fill="none" />
  </g>
</svg>