<?xml version="1.0" encoding="utf-8"?>
<svg version="1.1" xmlns:xlink="http://www.w3.org/1999/xlink" width="25px" height="25px" xmlns="http://www.w3.org/2000/svg">
  <defs>
    <linearGradient gradientUnits="userSpaceOnUse" x1="223.402791893289" y1="119.032999106789" x2="225.597208106711" y2="155.967000893211" id="LinearGradient469">
      <stop id="Stop470" stop-color="#409eff" offset="0" />
      <stop id="Stop471" stop-color="#409eff" offset="0.5" />
      <stop id="Stop472" stop-color="#0066ff" stop-opacity="0.654901960784314" offset="0.99" />
      <stop id="Stop473" stop-color="#0066ff" stop-opacity="0.698039215686274" offset="1" />
    </linearGradient>
  </defs>
  <g transform="matrix(1 0 0 1 -212 -125 )">
    <path d="M 224.5 125  C 231.5 125  237 130.5  237 137.5  C 237 144.5  231.5 150  224.5 150  C 217.5 150  212 144.5  212 137.5  C 212 130.5  217.5 125  224.5 125  Z " fill-rule="nonzero" fill="#ffffff" stroke="none" />
    <path d="M 224.5 125.5  C 231.22 125.5  236.5 130.78  236.5 137.5  C 236.5 144.22  231.22 149.5  224.5 149.5  C 217.78 149.5  212.5 144.22  212.5 137.5  C 212.5 130.78  217.78 125.5  224.5 125.5  Z " stroke-width="1" stroke="url(#LinearGradient469)" fill="none" />
  </g>
</svg>