<?xml version="1.0" encoding="utf-8"?>
<svg version="1.1" xmlns:xlink="http://www.w3.org/1999/xlink" width="156px" height="28px" xmlns="http://www.w3.org/2000/svg">
  <defs>
    <linearGradient gradientUnits="userSpaceOnUse" x1="577" y1="773" x2="577" y2="801" id="LinearGradient492">
      <stop id="Stop493" stop-color="#1e80ff" offset="0" />
      <stop id="Stop494" stop-color="#409eff" offset="1" />
    </linearGradient>
  </defs>
  <g transform="matrix(1 0 0 1 -499 -773 )">
    <path d="M 499.5 776  A 2.5 2.5 0 0 1 502 773.5 L 652 773.5  A 2.5 2.5 0 0 1 654.5 776 L 654.5 798  A 2.5 2.5 0 0 1 652 800.5 L 502 800.5  A 2.5 2.5 0 0 1 499.5 798 L 499.5 776  Z " fill-rule="nonzero" fill="#ffffff" stroke="none" />
    <path d="M 499.5 776  A 2.5 2.5 0 0 1 502 773.5 L 652 773.5  A 2.5 2.5 0 0 1 654.5 776 L 654.5 798  A 2.5 2.5 0 0 1 652 800.5 L 502 800.5  A 2.5 2.5 0 0 1 499.5 798 L 499.5 776  Z " stroke-width="1" stroke="url(#LinearGradient492)" fill="none" />
  </g>
</svg>