<svg t="1606888120613" class="icon" viewBox="0 0 1024 1024" version="1.1" xmlns="http://www.w3.org/2000/svg" p-id="2627" width="200" height="200"><path d="M510.710519 989.297778l-6.978371-1.517037c-123.828148-27.192889-237.605926-97.317926-320.094815-197.176889C101.944889 691.655111 56.888889 571.088593 56.888889 451.090963V253.079704C56.888889 208.592593 86.091852 168.011852 131.072 149.807407L459.434667 17.445926a138.24 138.24 0 0 1 102.551703 0l328.248889 132.361481c45.131852 18.204444 74.183111 58.747259 74.183111 103.234371v198.011259c0 119.99763-45.018074 240.564148-126.78637 339.512889-82.450963 99.972741-196.114963 169.984-319.943111 197.176889l-6.97837 1.517037z m3.185777-925.392593a72.438519 72.438519 0 0 0-26.927407 5.12L164.181333 199.186963c-23.703704 9.595259-39.025778 30.90963-39.025777 54.272v194.673778c0 220.34963 166.684444 423.708444 388.74074 475.856592 222.056296-52.148148 388.740741-255.544889 388.740741-475.856592V253.458963c0-23.36237-15.322074-44.676741-39.025778-54.272l-322.749629-130.161778a72.438519 72.438519 0 0 0-26.965334-5.157926z" fill="#13227a" p-id="2628"></path><path d="M408.158815 382.520889c0 47.976296 33.223111 88.746667 79.303111 103.158518h-1.85837v182.954667l38.608592 35.271111 21.124741-22.907259v-33.943704l-7.736889-7.774815 26.093037-24.462222-25.979259-24.38637 24.651852-22.945185v-12.401778l-24.841482-27.003259 26.093037-21.428149v-21.769481c44.790519-15.094519 76.837926-55.220148 76.837926-102.4 0-60.036741-51.958519-108.73363-116.129185-108.73363-64.170667 0-116.129185 48.696889-116.129185 108.771556z m167.822222 4.28563c0 25.372444-21.997037 45.89037-49.038222 45.89037-27.117037 0-49.076148-20.517926-49.076148-45.89037 0-25.372444 21.997037-45.89037 49.076148-45.890371 27.079111 0 49.038222 20.517926 49.038222 45.890371z" fill="#13227a" p-id="2629"></path></svg>