<svg t="1597201988839" class="icon" viewBox="0 0 1024 1024" version="1.1" xmlns="http://www.w3.org/2000/svg" p-id="4374" width="200" height="200"><path d="M153.6 889.856c-5.12 0-10.24-2.048-14.336-6.144-8.192-8.192-8.192-20.992 0-29.184L854.528 139.776c8.192-8.192 20.992-8.192 29.184 0 8.192 8.192 8.192 20.992 0 29.184L168.448 884.224c-4.096 3.584-9.216 5.632-14.848 5.632z" fill="#cdcdcd" p-id="4375"></path><path d="M870.4 889.856c-5.12 0-10.24-2.048-14.336-6.144L139.264 169.984c-8.192-8.192-8.192-20.992 0-29.184 8.192-8.192 20.992-8.192 29.184 0L884.736 855.04c8.192 8.192 8.192 20.992 0 29.184-4.096 3.584-9.216 5.632-14.336 5.632z" fill="#cdcdcd" p-id="4376"></path></svg>