<?xml version="1.0" encoding="utf-8"?>
<svg version="1.1" xmlns:xlink="http://www.w3.org/1999/xlink" width="132px" height="40px" xmlns="http://www.w3.org/2000/svg">
  <defs>
    <linearGradient gradientUnits="userSpaceOnUse" x1="461" y1="130" x2="461" y2="170" id="LinearGradient162">
      <stop id="Stop163" stop-color="#ec808d" offset="0" />
      <stop id="Stop164" stop-color="#e23e52" offset="0.51" />
      <stop id="Stop165" stop-color="#d9001b" offset="1" />
    </linearGradient>
  </defs>
  <g transform="matrix(1 0 0 1 -395 -130 )">
    <path d="M 395.5 132  A 1.5 1.5 0 0 1 397 130.5 L 525 130.5  A 1.5 1.5 0 0 1 526.5 132 L 526.5 168  A 1.5 1.5 0 0 1 525 169.5 L 397 169.5  A 1.5 1.5 0 0 1 395.5 168 L 395.5 132  Z " fill-rule="nonzero" fill="#ffffff" stroke="none" />
    <path d="M 395.5 132  A 1.5 1.5 0 0 1 397 130.5 L 525 130.5  A 1.5 1.5 0 0 1 526.5 132 L 526.5 168  A 1.5 1.5 0 0 1 525 169.5 L 397 169.5  A 1.5 1.5 0 0 1 395.5 168 L 395.5 132  Z " stroke-width="1" stroke="url(#LinearGradient162)" fill="none" />
  </g>
</svg>