<?xml version="1.0" encoding="utf-8"?>
<svg version="1.1" xmlns:xlink="http://www.w3.org/1999/xlink" width="131px" height="40px" xmlns="http://www.w3.org/2000/svg">
  <defs>
    <linearGradient gradientUnits="userSpaceOnUse" x1="284.5" y1="442" x2="284.5" y2="482" id="LinearGradient1038">
      <stop id="Stop1039" stop-color="#ec808d" offset="0" />
      <stop id="Stop1040" stop-color="#e23e52" offset="0.51" />
      <stop id="Stop1041" stop-color="#d9001b" offset="1" />
    </linearGradient>
  </defs>
  <g transform="matrix(1 0 0 1 -219 -442 )">
    <path d="M 219.5 444  A 1.5 1.5 0 0 1 221 442.5 L 348 442.5  A 1.5 1.5 0 0 1 349.5 444 L 349.5 480  A 1.5 1.5 0 0 1 348 481.5 L 221 481.5  A 1.5 1.5 0 0 1 219.5 480 L 219.5 444  Z " fill-rule="nonzero" fill="#ffffff" stroke="none" />
    <path d="M 219.5 444  A 1.5 1.5 0 0 1 221 442.5 L 348 442.5  A 1.5 1.5 0 0 1 349.5 444 L 349.5 480  A 1.5 1.5 0 0 1 348 481.5 L 221 481.5  A 1.5 1.5 0 0 1 219.5 480 L 219.5 444  Z " stroke-width="1" stroke="url(#LinearGradient1038)" fill="none" />
  </g>
</svg>