<?xml version="1.0" encoding="utf-8"?>
<svg version="1.1" xmlns:xlink="http://www.w3.org/1999/xlink" width="120px" height="120px" xmlns="http://www.w3.org/2000/svg">
  <g transform="matrix(1 0 0 1 -748 -166 )">
    <path d="M 808 166.5  C 841.32 166.5  867.5 192.68  867.5 226  C 867.5 259.32  841.32 285.5  808 285.5  C 774.68 285.5  748.5 259.32  748.5 226  C 748.5 192.68  774.68 166.5  808 166.5  Z " fill-rule="nonzero" fill="#ffffff" stroke="none" fill-opacity="0.117647058823529" />
    <path d="M 808 166.5  C 841.32 166.5  867.5 192.68  867.5 226  C 867.5 259.32  841.32 285.5  808 285.5  C 774.68 285.5  748.5 259.32  748.5 226  C 748.5 192.68  774.68 166.5  808 166.5  Z " stroke-width="1" stroke-dasharray="3,1" stroke="#ff0000" fill="none" stroke-dashoffset="0.5" />
  </g>
</svg>