<?xml version="1.0" encoding="utf-8"?>
<svg version="1.1" xmlns:xlink="http://www.w3.org/1999/xlink" width="170px" height="28px" xmlns="http://www.w3.org/2000/svg">
  <defs>
    <linearGradient gradientUnits="userSpaceOnUse" x1="945.743399179864" y1="768.000048351269" x2="958.256600820136" y2="813.999951648731" id="LinearGradient237">
      <stop id="Stop238" stop-color="#409eff" offset="0" />
      <stop id="Stop239" stop-color="#409eff" offset="0.5" />
      <stop id="Stop240" stop-color="#0066ff" offset="1" />
    </linearGradient>
  </defs>
  <g transform="matrix(1 0 0 1 -867 -777 )">
    <path d="M 867.5 780  A 2.5 2.5 0 0 1 870 777.5 L 1034 777.5  A 2.5 2.5 0 0 1 1036.5 780 L 1036.5 802  A 2.5 2.5 0 0 1 1034 804.5 L 870 804.5  A 2.5 2.5 0 0 1 867.5 802 L 867.5 780  Z " fill-rule="nonzero" fill="#ffffff" stroke="none" />
    <path d="M 867.5 780  A 2.5 2.5 0 0 1 870 777.5 L 1034 777.5  A 2.5 2.5 0 0 1 1036.5 780 L 1036.5 802  A 2.5 2.5 0 0 1 1034 804.5 L 870 804.5  A 2.5 2.5 0 0 1 867.5 802 L 867.5 780  Z " stroke-width="1" stroke="url(#LinearGradient237)" fill="none" />
  </g>
</svg>