<?xml version="1.0" encoding="utf-8"?>
<svg version="1.1" xmlns:xlink="http://www.w3.org/1999/xlink" width="351px" height="30px" xmlns="http://www.w3.org/2000/svg">
  <g transform="matrix(1 0 0 1 -60 -156 )">
    <path d="M 61 171  A 14 14 0 0 1 75 157 L 396 157  A 14 14 0 0 1 410 171 A 14 14 0 0 1 396 185 L 75 185  A 14 14 0 0 1 61 171 Z " fill-rule="nonzero" fill="#ffffff" stroke="none" />
    <path d="M 60.5 171  A 14.5 14.5 0 0 1 75 156.5 L 396 156.5  A 14.5 14.5 0 0 1 410.5 171 A 14.5 14.5 0 0 1 396 185.5 L 75 185.5  A 14.5 14.5 0 0 1 60.5 171 Z " stroke-width="1" stroke="#aaaaaa" fill="none" stroke-opacity="0.682352941176471" />
  </g>
</svg>