<?xml version="1.0" encoding="utf-8"?>
<svg version="1.1" xmlns:xlink="http://www.w3.org/1999/xlink" width="122px" height="101px" xmlns="http://www.w3.org/2000/svg">
  <defs>
    <linearGradient gradientUnits="userSpaceOnUse" x1="281.524616314997" y1="603.091146953723" x2="302.475383685003" y2="721.908853046277" id="LinearGradient107">
      <stop id="Stop108" stop-color="#409eff" offset="0" />
      <stop id="Stop109" stop-color="#409eff" offset="0.5" />
      <stop id="Stop110" stop-color="#0066ff" offset="1" />
    </linearGradient>
  </defs>
  <g transform="matrix(1 0 0 1 -231 -612 )">
    <path d="M 231.5 614  A 1.5 1.5 0 0 1 233 612.5 L 351 612.5  A 1.5 1.5 0 0 1 352.5 614 L 352.5 711  A 1.5 1.5 0 0 1 351 712.5 L 233 712.5  A 1.5 1.5 0 0 1 231.5 711 L 231.5 614  Z " fill-rule="nonzero" fill="#ffffff" stroke="none" />
    <path d="M 231.5 614  A 1.5 1.5 0 0 1 233 612.5 L 351 612.5  A 1.5 1.5 0 0 1 352.5 614 L 352.5 711  A 1.5 1.5 0 0 1 351 712.5 L 233 712.5  A 1.5 1.5 0 0 1 231.5 711 L 231.5 614  Z " stroke-width="1" stroke="url(#LinearGradient107)" fill="none" />
  </g>
</svg>