<?xml version="1.0" encoding="utf-8"?>
<svg version="1.1" xmlns:xlink="http://www.w3.org/1999/xlink" width="152px" height="192px" xmlns="http://www.w3.org/2000/svg">
  <defs>
    <linearGradient gradientUnits="userSpaceOnUse" x1="593.255883573567" y1="507.803937562201" x2="672.744116426433" y2="726.196062437799" id="LinearGradient976">
      <stop id="Stop977" stop-color="#ff0000" offset="0" />
      <stop id="Stop978" stop-color="#f78989" offset="1" />
    </linearGradient>
  </defs>
  <g transform="matrix(1 0 0 1 -557 -521 )">
    <path d="M 557.5 523  A 1.5 1.5 0 0 1 559 521.5 L 707 521.5  A 1.5 1.5 0 0 1 708.5 523 L 708.5 711  A 1.5 1.5 0 0 1 707 712.5 L 559 712.5  A 1.5 1.5 0 0 1 557.5 711 L 557.5 523  Z " fill-rule="nonzero" fill="#ffffff" stroke="none" />
    <path d="M 557.5 523  A 1.5 1.5 0 0 1 559 521.5 L 707 521.5  A 1.5 1.5 0 0 1 708.5 523 L 708.5 711  A 1.5 1.5 0 0 1 707 712.5 L 559 712.5  A 1.5 1.5 0 0 1 557.5 711 L 557.5 523  Z " stroke-width="1" stroke="url(#LinearGradient976)" fill="none" />
  </g>
</svg>