<?xml version="1.0" encoding="utf-8"?>
<svg version="1.1" xmlns:xlink="http://www.w3.org/1999/xlink" width="122px" height="62px" xmlns="http://www.w3.org/2000/svg">
  <defs>
    <linearGradient gradientUnits="userSpaceOnUse" x1="284.859312712422" y1="840.503150006386" x2="299.140687287578" y2="921.496849993614" id="LinearGradient111">
      <stop id="Stop112" stop-color="#409eff" offset="0" />
      <stop id="Stop113" stop-color="#409eff" offset="0.5" />
      <stop id="Stop114" stop-color="#0066ff" offset="1" />
    </linearGradient>
  </defs>
  <g transform="matrix(1 0 0 1 -231 -850 )">
    <path d="M 231.5 852  A 1.5 1.5 0 0 1 233 850.5 L 351 850.5  A 1.5 1.5 0 0 1 352.5 852 L 352.5 910  A 1.5 1.5 0 0 1 351 911.5 L 233 911.5  A 1.5 1.5 0 0 1 231.5 910 L 231.5 852  Z " fill-rule="nonzero" fill="#ffffff" stroke="none" />
    <path d="M 231.5 852  A 1.5 1.5 0 0 1 233 850.5 L 351 850.5  A 1.5 1.5 0 0 1 352.5 852 L 352.5 910  A 1.5 1.5 0 0 1 351 911.5 L 233 911.5  A 1.5 1.5 0 0 1 231.5 910 L 231.5 852  Z " stroke-width="1" stroke="url(#LinearGradient111)" fill="none" />
  </g>
</svg>