<?xml version="1.0" encoding="utf-8"?>
<svg version="1.1" xmlns:xlink="http://www.w3.org/1999/xlink" width="133px" height="34px" xmlns="http://www.w3.org/2000/svg">
  <g transform="matrix(1 0 0 1 -76 -770 )">
    <path d="M 77 773  A 2 2 0 0 1 79 771 L 206 771  A 2 2 0 0 1 208 773 L 208 801  A 2 2 0 0 1 206 803 L 79 803  A 2 2 0 0 1 77 801 L 77 773  Z " fill-rule="nonzero" fill="#ffffff" stroke="none" />
    <path d="M 76.5 773  A 2.5 2.5 0 0 1 79 770.5 L 206 770.5  A 2.5 2.5 0 0 1 208.5 773 L 208.5 801  A 2.5 2.5 0 0 1 206 803.5 L 79 803.5  A 2.5 2.5 0 0 1 76.5 801 L 76.5 773  Z " stroke-width="1" stroke="#ff9900" fill="none" stroke-opacity="0.737254901960784" />
  </g>
</svg>