<svg t="1600311672315" class="icon" viewBox="0 0 1024 1024" version="1.1" xmlns="http://www.w3.org/2000/svg" p-id="2405" width="200" height="200"><path d="M819.665455 0H204.101818A181.527273 181.527273 0 0 0 23.272727 181.061818v661.876364A181.527273 181.527273 0 0 0 204.334545 1024h195.49091a38.4 38.4 0 1 0 0-76.8h-195.49091a104.261818 104.261818 0 0 1-104.261818-104.261818V181.061818A104.261818 104.261818 0 0 1 204.334545 76.8h615.33091a104.261818 104.261818 0 0 1 104.261818 104.261818v175.941818a38.4 38.4 0 1 0 76.8 0V181.061818A181.527273 181.527273 0 0 0 819.665455 0z" fill="#cdcdcd" p-id="2406"></path><path d="M751.709091 284.392727l-11.869091-11.869091a144.290909 144.290909 0 0 0-203.636364 0L272.290909 535.272727a144.058182 144.058182 0 0 0 0 203.636364l11.869091 11.869091a144.523636 144.523636 0 0 0 203.869091 0l146.618182-145.687273 116.363636-116.363636a144.058182 144.058182 0 0 0 0-203.636364z m-26.065455 101.934546a75.636364 75.636364 0 0 1-23.272727 53.992727l-87.505454 87.505455a442.181818 442.181818 0 0 0-53.76-65.629091 455.214545 455.214545 0 0 0-66.327273-53.992728l87.738182-87.738181a76.334545 76.334545 0 0 1 107.985454 0l11.869091 11.86909a75.636364 75.636364 0 0 1 23.272727 53.992728zM297.890909 637.672727a75.636364 75.636364 0 0 1 23.272727-53.992727l126.603637-126.603636a393.309091 393.309091 0 0 1 67.258182 52.829091 395.636364 395.636364 0 0 1 52.596363 66.792727l-126.603636 126.603636a76.334545 76.334545 0 0 1-107.985455 0l-11.869091-11.869091a75.636364 75.636364 0 0 1-23.272727-53.76zM624.407273 825.018182a37.934545 37.934545 0 0 0-37.701818 37.701818v123.345455a37.701818 37.701818 0 1 0 75.636363 0v-123.345455a37.934545 37.934545 0 0 0-37.934545-37.701818zM793.6 732.16a37.934545 37.934545 0 0 0-37.701818 37.701818v216.203637a37.701818 37.701818 0 1 0 75.636363 0v-216.203637a37.934545 37.934545 0 0 0-37.934545-37.701818zM963.025455 622.545455a37.934545 37.934545 0 0 0-37.701819 37.701818v325.818182a37.701818 37.701818 0 1 0 75.636364 0v-325.818182a37.934545 37.934545 0 0 0-37.934545-37.701818z" fill="#cdcdcd" p-id="2407"></path></svg>