<svg t="1599701055610" class="icon" viewBox="0 0 1024 1024" version="1.1" xmlns="http://www.w3.org/2000/svg" p-id="12582" width="200" height="200"><path d="M512 512m-512 0a512 512 0 1 0 1024 0 512 512 0 1 0-1024 0Z" fill="#2DC9D7" p-id="12583"></path><path d="M538.666667 420.373333a22.357333 22.357333 0 0 1-22.56-22.602666v-45.184c0-12.661333 9.92-22.602667 22.56-22.602667s22.56 9.941333 22.56 22.602667v45.184c0 12.661333-9.92 22.602667-22.56 22.602666z m222.933333-22.602666c1.813333 1.813333 2.709333 4.522667 2.709333 8.138666V714.133333a67.648 67.648 0 0 1-67.690666 67.786667H335.594667a67.648 67.648 0 0 1-67.701334-67.786667V307.392c0-37.066667 30.688-67.797333 67.701334-67.797333h262.645333c3.605333 0 6.314667 1.813333 9.024 4.522666L761.6 397.76zM335.594667 420.373333c0 12.650667 9.92 22.592 22.56 22.592H583.786667a22.357333 22.357333 0 0 0 22.56-22.592v-90.389333c0-12.650667-9.92-22.592-22.56-22.592H358.154667a22.357333 22.357333 0 0 0-22.56 22.592v90.389333zM696.618667 691.52V510.762667c0-12.661333-9.930667-22.602667-22.570667-22.602667H358.154667a22.357333 22.357333 0 0 0-22.56 22.602667V691.52c0 12.661333 9.92 22.602667 22.56 22.602667h315.893333a22.357333 22.357333 0 0 0 22.570667-22.602667z" fill="#FFFFFF" p-id="12584"></path></svg>