<?xml version="1.0" encoding="utf-8"?>
<svg version="1.1" xmlns:xlink="http://www.w3.org/1999/xlink" width="20px" height="20px" xmlns="http://www.w3.org/2000/svg">
  <g transform="matrix(1 0 0 1 -383 -169 )">
    <path d="M 393 169  C 398.6 169  403 173.4  403 179  C 403 184.6  398.6 189  393 189  C 387.4 189  383 184.6  383 179  C 383 173.4  387.4 169  393 169  Z " fill-rule="nonzero" fill="#ffffff" stroke="none" />
    <path d="M 393 169.5  C 398.32 169.5  402.5 173.68  402.5 179  C 402.5 184.32  398.32 188.5  393 188.5  C 387.68 188.5  383.5 184.32  383.5 179  C 383.5 173.68  387.68 169.5  393 169.5  Z " stroke-width="1" stroke="#409eff" fill="none" />
  </g>
</svg>