<?xml version="1.0" encoding="utf-8"?>
<svg version="1.1" xmlns:xlink="http://www.w3.org/1999/xlink" width="20px" height="20px" xmlns="http://www.w3.org/2000/svg">
  <g transform="matrix(1 0 0 1 -383 -169 )">
    <path d="M 393 173  C 396.36 173  399 175.64  399 179  C 399 182.36  396.36 185  393 185  C 389.64 185  387 182.36  387 179  C 387 175.64  389.64 173  393 173  Z " fill-rule="nonzero" fill="#ffffff" stroke="none" />
    <path d="M 393 171.5  C 397.2 171.5  400.5 174.8  400.5 179  C 400.5 183.2  397.2 186.5  393 186.5  C 388.8 186.5  385.5 183.2  385.5 179  C 385.5 174.8  388.8 171.5  393 171.5  Z " stroke-width="5" stroke="#409eff" fill="none" />
  </g>
</svg>