<?xml version="1.0" encoding="utf-8"?>
<svg version="1.1" xmlns:xlink="http://www.w3.org/1999/xlink" width="15px" height="15px" xmlns="http://www.w3.org/2000/svg">
  <g transform="matrix(1 0 0 1 -387 -74 )">
    <path d="M 394.5 75  C 398.14 75  401 77.86  401 81.5  C 401 85.14  398.14 88  394.5 88  C 390.86 88  388 85.14  388 81.5  C 388 77.86  390.86 75  394.5 75  Z " fill-rule="nonzero" fill="#ffffff" stroke="none" />
    <path d="M 394.5 75  C 398.14 75  401 77.86  401 81.5  C 401 85.14  398.14 88  394.5 88  C 390.86 88  388 85.14  388 81.5  C 388 77.86  390.86 75  394.5 75  Z " stroke-width="2" stroke="#797979" fill="none" />
  </g>
</svg>