<?xml version="1.0" encoding="utf-8"?>
<svg version="1.1" xmlns:xlink="http://www.w3.org/1999/xlink" width="152px" height="257px" xmlns="http://www.w3.org/2000/svg">
  <defs>
    <linearGradient gradientUnits="userSpaceOnUse" x1="723.810584916161" y1="646.605715361517" x2="824.189415083839" y2="922.394284638483" id="LinearGradient948">
      <stop id="Stop949" stop-color="#ff0000" offset="0" />
      <stop id="Stop950" stop-color="#f78989" offset="1" />
    </linearGradient>
  </defs>
  <g transform="matrix(1 0 0 1 -698 -656 )">
    <path d="M 698.5 658  A 1.5 1.5 0 0 1 700 656.5 L 848 656.5  A 1.5 1.5 0 0 1 849.5 658 L 849.5 911  A 1.5 1.5 0 0 1 848 912.5 L 700 912.5  A 1.5 1.5 0 0 1 698.5 911 L 698.5 658  Z " fill-rule="nonzero" fill="#ffffff" stroke="none" />
    <path d="M 698.5 658  A 1.5 1.5 0 0 1 700 656.5 L 848 656.5  A 1.5 1.5 0 0 1 849.5 658 L 849.5 911  A 1.5 1.5 0 0 1 848 912.5 L 700 912.5  A 1.5 1.5 0 0 1 698.5 911 L 698.5 658  Z " stroke-width="1" stroke="url(#LinearGradient948)" fill="none" />
  </g>
</svg>