<?xml version="1.0" encoding="utf-8"?>
<svg version="1.1" xmlns:xlink="http://www.w3.org/1999/xlink" width="122px" height="45px" xmlns="http://www.w3.org/2000/svg">
  <defs>
    <linearGradient gradientUnits="userSpaceOnUse" x1="368.312898321556" y1="186.246843644726" x2="379.687101678444" y2="250.753156355274" id="LinearGradient357">
      <stop id="Stop358" stop-color="#409eff" offset="0" />
      <stop id="Stop359" stop-color="#409eff" offset="0.5" />
      <stop id="Stop360" stop-color="#0066ff" offset="1" />
    </linearGradient>
  </defs>
  <g transform="matrix(1 0 0 1 -313 -196 )">
    <path d="M 313.5 198  A 1.5 1.5 0 0 1 315 196.5 L 433 196.5  A 1.5 1.5 0 0 1 434.5 198 L 434.5 239  A 1.5 1.5 0 0 1 433 240.5 L 315 240.5  A 1.5 1.5 0 0 1 313.5 239 L 313.5 198  Z " fill-rule="nonzero" fill="#ffffff" stroke="none" />
    <path d="M 313.5 198  A 1.5 1.5 0 0 1 315 196.5 L 433 196.5  A 1.5 1.5 0 0 1 434.5 198 L 434.5 239  A 1.5 1.5 0 0 1 433 240.5 L 315 240.5  A 1.5 1.5 0 0 1 313.5 239 L 313.5 198  Z " stroke-width="1" stroke="url(#LinearGradient357)" fill="none" />
  </g>
</svg>