<?xml version="1.0" encoding="utf-8"?>
<svg version="1.1" xmlns:xlink="http://www.w3.org/1999/xlink" width="143px" height="81px" xmlns="http://www.w3.org/2000/svg">
  <g transform="matrix(1 0 0 1 -703 -739 )">
    <path d="M 704 742  A 2 2 0 0 1 706 740 L 843 740  A 2 2 0 0 1 845 742 L 845 817  A 2 2 0 0 1 843 819 L 706 819  A 2 2 0 0 1 704 817 L 704 742  Z " fill-rule="nonzero" fill="#ffffff" stroke="none" fill-opacity="0" />
    <path d="M 703.5 742  A 2.5 2.5 0 0 1 706 739.5 L 843 739.5  A 2.5 2.5 0 0 1 845.5 742 L 845.5 817  A 2.5 2.5 0 0 1 843 819.5 L 706 819.5  A 2.5 2.5 0 0 1 703.5 817 L 703.5 742  Z " stroke-width="1" stroke-dasharray="3,1" stroke="#cccccc" fill="none" stroke-dashoffset="0.5" />
  </g>
</svg>