<?xml version="1.0" encoding="utf-8"?>
<svg version="1.1" xmlns:xlink="http://www.w3.org/1999/xlink" width="152px" height="208px" xmlns="http://www.w3.org/2000/svg">
  <defs>
    <linearGradient gradientUnits="userSpaceOnUse" x1="731.684733134821" y1="388.739759789725" x2="816.315266865179" y2="621.260240210275" id="LinearGradient959">
      <stop id="Stop960" stop-color="#ff0000" offset="0" />
      <stop id="Stop961" stop-color="#f78989" offset="1" />
    </linearGradient>
  </defs>
  <g transform="matrix(1 0 0 1 -698 -401 )">
    <path d="M 698.5 403  A 1.5 1.5 0 0 1 700 401.5 L 848 401.5  A 1.5 1.5 0 0 1 849.5 403 L 849.5 607  A 1.5 1.5 0 0 1 848 608.5 L 700 608.5  A 1.5 1.5 0 0 1 698.5 607 L 698.5 403  Z " fill-rule="nonzero" fill="#ffffff" stroke="none" />
    <path d="M 698.5 403  A 1.5 1.5 0 0 1 700 401.5 L 848 401.5  A 1.5 1.5 0 0 1 849.5 403 L 849.5 607  A 1.5 1.5 0 0 1 848 608.5 L 700 608.5  A 1.5 1.5 0 0 1 698.5 607 L 698.5 403  Z " stroke-width="1" stroke="url(#LinearGradient959)" fill="none" />
  </g>
</svg>