<?xml version="1.0" encoding="utf-8"?>
<svg version="1.1" xmlns:xlink="http://www.w3.org/1999/xlink" width="122px" height="45px" xmlns="http://www.w3.org/2000/svg">
  <defs>
    <linearGradient gradientUnits="userSpaceOnUse" x1="368.312898321556" y1="1148.24684364473" x2="379.687101678444" y2="1212.75315635527" id="LinearGradient962">
      <stop id="Stop963" stop-color="#409eff" offset="0" />
      <stop id="Stop964" stop-color="#409eff" offset="0.5" />
      <stop id="Stop965" stop-color="#0066ff" offset="1" />
    </linearGradient>
  </defs>
  <g transform="matrix(1 0 0 1 -313 -1158 )">
    <path d="M 313.5 1180.5  A 22 22 0 0 1 335.5 1158.5 L 412.5 1158.5  A 22 22 0 0 1 434.5 1180.5 A 22 22 0 0 1 412.5 1202.5 L 335.5 1202.5  A 22 22 0 0 1 313.5 1180.5 Z " fill-rule="nonzero" fill="#ffffff" stroke="none" />
    <path d="M 313.5 1180.5  A 22 22 0 0 1 335.5 1158.5 L 412.5 1158.5  A 22 22 0 0 1 434.5 1180.5 A 22 22 0 0 1 412.5 1202.5 L 335.5 1202.5  A 22 22 0 0 1 313.5 1180.5 Z " stroke-width="1" stroke="url(#LinearGradient962)" fill="none" />
  </g>
</svg>