<?xml version="1.0" encoding="utf-8"?>
<svg version="1.1" xmlns:xlink="http://www.w3.org/1999/xlink" width="152px" height="208px" xmlns="http://www.w3.org/2000/svg">
  <defs>
    <linearGradient gradientUnits="userSpaceOnUse" x1="1026.68473313482" y1="388.739759789725" x2="1111.31526686518" y2="621.260240210275" id="LinearGradient101">
      <stop id="Stop102" stop-color="#ff0000" offset="0" />
      <stop id="Stop103" stop-color="#f78989" offset="1" />
    </linearGradient>
  </defs>
  <g transform="matrix(1 0 0 1 -993 -401 )">
    <path d="M 994 403  A 1 1 0 0 1 995 402 L 1143 402  A 1 1 0 0 1 1144 403 L 1144 607  A 1 1 0 0 1 1143 608 L 995 608  A 1 1 0 0 1 994 607 L 994 403  Z " fill-rule="nonzero" fill="#ffffff" stroke="none" />
    <path d="M 993.5 403  A 1.5 1.5 0 0 1 995 401.5 L 1143 401.5  A 1.5 1.5 0 0 1 1144.5 403 L 1144.5 607  A 1.5 1.5 0 0 1 1143 608.5 L 995 608.5  A 1.5 1.5 0 0 1 993.5 607 L 993.5 403  Z " stroke-width="1" stroke-dasharray="3,1" stroke="url(#LinearGradient101)" fill="none" stroke-dashoffset="0.5" />
  </g>
</svg>