<?xml version="1.0" encoding="utf-8"?>
<svg version="1.1" xmlns:xlink="http://www.w3.org/1999/xlink" width="16px" height="16px" xmlns="http://www.w3.org/2000/svg">
  <g transform="matrix(1 0 0 1 -324 -191 )">
    <path d="M 332 191  C 336.48 191  340 194.52  340 199  C 340 203.48  336.48 207  332 207  C 327.52 207  324 203.48  324 199  C 324 194.52  327.52 191  332 191  Z " fill-rule="nonzero" fill="#ffffff" stroke="none" />
    <path d="M 332 191.5  C 336.2 191.5  339.5 194.8  339.5 199  C 339.5 203.2  336.2 206.5  332 206.5  C 327.8 206.5  324.5 203.2  324.5 199  C 324.5 194.8  327.8 191.5  332 191.5  Z " stroke-width="1" stroke="#aaaaaa" fill="none" />
  </g>
</svg>