<?xml version="1.0" encoding="utf-8"?>
<svg version="1.1" xmlns:xlink="http://www.w3.org/1999/xlink" width="16px" height="16px" xmlns="http://www.w3.org/2000/svg">
  <g transform="matrix(1 0 0 1 -54 -204 )">
    <path d="M 62 204  C 66.48 204  70 207.52  70 212  C 70 216.48  66.48 220  62 220  C 57.52 220  54 216.48  54 212  C 54 207.52  57.52 204  62 204  Z " fill-rule="nonzero" fill="#ffffff" stroke="none" />
    <path d="M 62 204.5  C 66.2 204.5  69.5 207.8  69.5 212  C 69.5 216.2  66.2 219.5  62 219.5  C 57.8 219.5  54.5 216.2  54.5 212  C 54.5 207.8  57.8 204.5  62 204.5  Z " stroke-width="1" stroke="#aaaaaa" fill="none" />
  </g>
</svg>