<?xml version="1.0" encoding="utf-8"?>
<svg version="1.1" xmlns:xlink="http://www.w3.org/1999/xlink" width="1546px" height="55px" xmlns="http://www.w3.org/2000/svg">
  <defs>
    <linearGradient gradientUnits="userSpaceOnUse" x1="743.283567668037" y1="730.773636976936" x2="946.716432331963" y2="1168.22636302306" id="LinearGradient344">
      <stop id="Stop345" stop-color="#ff0000" offset="0" />
      <stop id="Stop346" stop-color="#f78989" offset="1" />
    </linearGradient>
  </defs>
  <g transform="matrix(1 0 0 1 -72 -922 )">
    <path d="M 73 924  A 1 1 0 0 1 74 923 L 1616 923  A 1 1 0 0 1 1617 924 L 1617 975  A 1 1 0 0 1 1616 976 L 74 976  A 1 1 0 0 1 73 975 L 73 924  Z " fill-rule="nonzero" fill="#ffffff" stroke="none" />
    <path d="M 72.5 924  A 1.5 1.5 0 0 1 74 922.5 L 1616 922.5  A 1.5 1.5 0 0 1 1617.5 924 L 1617.5 975  A 1.5 1.5 0 0 1 1616 976.5 L 74 976.5  A 1.5 1.5 0 0 1 72.5 975 L 72.5 924  Z " stroke-width="1" stroke-dasharray="3,1" stroke="url(#LinearGradient344)" fill="none" stroke-dashoffset="0.5" />
  </g>
</svg>