<?xml version="1.0" encoding="utf-8"?>
<svg version="1.1" xmlns:xlink="http://www.w3.org/1999/xlink" width="152px" height="170px" xmlns="http://www.w3.org/2000/svg">
  <defs>
    <linearGradient gradientUnits="userSpaceOnUse" x1="1488.32897471119" y1="285.424393926168" x2="1501.67102528881" y2="536.575606073832" id="LinearGradient350">
      <stop id="Stop351" stop-color="#409eff" offset="0" />
      <stop id="Stop352" stop-color="#409eff" offset="0.5" />
      <stop id="Stop353" stop-color="#0066ff" offset="1" />
    </linearGradient>
  </defs>
  <g transform="matrix(1 0 0 1 -1419 -326 )">
    <path d="M 1419.5 328  A 1.5 1.5 0 0 1 1421 326.5 L 1569 326.5  A 1.5 1.5 0 0 1 1570.5 328 L 1570.5 494  A 1.5 1.5 0 0 1 1569 495.5 L 1421 495.5  A 1.5 1.5 0 0 1 1419.5 494 L 1419.5 328  Z " fill-rule="nonzero" fill="#ffffff" stroke="none" />
    <path d="M 1419.5 328  A 1.5 1.5 0 0 1 1421 326.5 L 1569 326.5  A 1.5 1.5 0 0 1 1570.5 328 L 1570.5 494  A 1.5 1.5 0 0 1 1569 495.5 L 1421 495.5  A 1.5 1.5 0 0 1 1419.5 494 L 1419.5 328  Z " stroke-width="1" stroke="url(#LinearGradient350)" fill="none" />
  </g>
</svg>