<?xml version="1.0" encoding="utf-8"?>
<svg version="1.1" xmlns:xlink="http://www.w3.org/1999/xlink" width="32px" height="32px" preserveAspectRatio="xMinYMid meet" viewBox="1479 311  32 30" xmlns="http://www.w3.org/2000/svg">
  <path d="M 662.5 142  L 662.5 179  A 5 5 0 0 0 667 184.5 L 928 184.5  A 3 3 0 0 1 931 181.5 A 3 3 0 0 1 934 184.5 L 1203 184.5  A 3 3 0 0 1 1206 181.5 A 3 3 0 0 1 1209 184.5 L 1490 184.5  A 5 5 0 0 1 1495.5 189.5 L 1495.5 326  " stroke-width="1" stroke="#409eff" fill="none" />
  <path d="M 1489.5 320.3  L 1495.5 327  L 1501.5 320.3  L 1495.5 322.6  L 1489.5 320.3  Z " fill-rule="nonzero" fill="#409eff" stroke="none" />
</svg>