<?xml version="1.0" encoding="utf-8"?>
<svg version="1.1" xmlns:xlink="http://www.w3.org/1999/xlink" width="152px" height="170px" xmlns="http://www.w3.org/2000/svg">
  <defs>
    <linearGradient gradientUnits="userSpaceOnUse" x1="111.791215426843" y1="309.517181999355" x2="184.208784573157" y2="508.482818000645" id="LinearGradient334">
      <stop id="Stop335" stop-color="#ff0000" offset="0" />
      <stop id="Stop336" stop-color="#f78989" offset="1" />
    </linearGradient>
  </defs>
  <g transform="matrix(1 0 0 1 -72 -324 )">
    <path d="M 72.5 326  A 1.5 1.5 0 0 1 74 324.5 L 222 324.5  A 1.5 1.5 0 0 1 223.5 326 L 223.5 492  A 1.5 1.5 0 0 1 222 493.5 L 74 493.5  A 1.5 1.5 0 0 1 72.5 492 L 72.5 326  Z " fill-rule="nonzero" fill="#ffffff" stroke="none" />
    <path d="M 72.5 326  A 1.5 1.5 0 0 1 74 324.5 L 222 324.5  A 1.5 1.5 0 0 1 223.5 326 L 223.5 492  A 1.5 1.5 0 0 1 222 493.5 L 74 493.5  A 1.5 1.5 0 0 1 72.5 492 L 72.5 326  Z " stroke-width="1" stroke="url(#LinearGradient334)" fill="none" />
  </g>
</svg>