<?xml version="1.0" encoding="utf-8"?>
<svg version="1.1" xmlns:xlink="http://www.w3.org/1999/xlink" width="152px" height="45px" xmlns="http://www.w3.org/2000/svg">
  <defs>
    <linearGradient gradientUnits="userSpaceOnUse" x1="131.878328229548" y1="535.206070846823" x2="164.121671770452" y2="623.793929153177" id="LinearGradient337">
      <stop id="Stop338" stop-color="#3a8ee6" offset="0" />
      <stop id="Stop339" stop-color="#3a8ee6" offset="0.56" />
      <stop id="Stop340" stop-color="#79bbff" offset="1" />
    </linearGradient>
  </defs>
  <g transform="matrix(1 0 0 1 -72 -557 )">
    <path d="M 72.5 559  A 1.5 1.5 0 0 1 74 557.5 L 222 557.5  A 1.5 1.5 0 0 1 223.5 559 L 223.5 600  A 1.5 1.5 0 0 1 222 601.5 L 74 601.5  A 1.5 1.5 0 0 1 72.5 600 L 72.5 559  Z " fill-rule="nonzero" fill="#ffffff" stroke="none" />
    <path d="M 72.5 559  A 1.5 1.5 0 0 1 74 557.5 L 222 557.5  A 1.5 1.5 0 0 1 223.5 559 L 223.5 600  A 1.5 1.5 0 0 1 222 601.5 L 74 601.5  A 1.5 1.5 0 0 1 72.5 600 L 72.5 559  Z " stroke-width="1" stroke="url(#LinearGradient337)" fill="none" />
  </g>
</svg>