<?xml version="1.0" encoding="utf-8"?>
<svg version="1.1" xmlns:xlink="http://www.w3.org/1999/xlink" width="1546px" height="158px" xmlns="http://www.w3.org/2000/svg">
  <defs>
    <linearGradient gradientUnits="userSpaceOnUse" x1="722.135589694635" y1="499.797992566622" x2="967.864410305365" y2="1028.20200743338" id="LinearGradient63">
      <stop id="Stop64" stop-color="#ff0000" offset="0" />
      <stop id="Stop65" stop-color="#f78989" offset="1" />
    </linearGradient>
  </defs>
  <g transform="matrix(1 0 0 1 -72 -685 )">
    <path d="M 72.5 687  A 1.5 1.5 0 0 1 74 685.5 L 1616 685.5  A 1.5 1.5 0 0 1 1617.5 687 L 1617.5 841  A 1.5 1.5 0 0 1 1616 842.5 L 74 842.5  A 1.5 1.5 0 0 1 72.5 841 L 72.5 687  Z " fill-rule="nonzero" fill="#ffffff" stroke="none" />
    <path d="M 72.5 687  A 1.5 1.5 0 0 1 74 685.5 L 1616 685.5  A 1.5 1.5 0 0 1 1617.5 687 L 1617.5 841  A 1.5 1.5 0 0 1 1616 842.5 L 74 842.5  A 1.5 1.5 0 0 1 72.5 841 L 72.5 687  Z " stroke-width="1" stroke="url(#LinearGradient63)" fill="none" />
  </g>
</svg>