<?xml version="1.0" encoding="utf-8"?>
<svg version="1.1" xmlns:xlink="http://www.w3.org/1999/xlink" width="360px" height="174px" xmlns="http://www.w3.org/2000/svg">
  <g transform="matrix(1 0 0 1 -346 -641 )">
    <path d="M 347 645  A 3 3 0 0 1 350 642 L 702 642  A 3 3 0 0 1 705 645 L 705 811  A 3 3 0 0 1 702 814 L 350 814  A 3 3 0 0 1 347 811 L 347 645  Z " fill-rule="nonzero" fill="#ffffff" stroke="none" />
    <path d="M 346.5 645  A 3.5 3.5 0 0 1 350 641.5 L 702 641.5  A 3.5 3.5 0 0 1 705.5 645 L 705.5 811  A 3.5 3.5 0 0 1 702 814.5 L 350 814.5  A 3.5 3.5 0 0 1 346.5 811 L 346.5 645  Z " stroke-width="1" stroke-dasharray="3,1" stroke="#40a9ff" fill="none" stroke-dashoffset="0.5" />
  </g>
</svg>