<?xml version="1.0" encoding="utf-8"?>
<svg version="1.1" xmlns:xlink="http://www.w3.org/1999/xlink" width="156px" height="28px" xmlns="http://www.w3.org/2000/svg">
  <defs>
    <linearGradient gradientUnits="userSpaceOnUse" x1="132" y1="773" x2="132" y2="801" id="LinearGradient257">
      <stop id="Stop258" stop-color="#1e80ff" offset="0" />
      <stop id="Stop259" stop-color="#409eff" offset="1" />
    </linearGradient>
  </defs>
  <g transform="matrix(1 0 0 1 -54 -773 )">
    <path d="M 54.5 787  A 13.5 13.5 0 0 1 68 773.5 L 196 773.5  A 13.5 13.5 0 0 1 209.5 787 A 13.5 13.5 0 0 1 196 800.5 L 68 800.5  A 13.5 13.5 0 0 1 54.5 787 Z " fill-rule="nonzero" fill="#ffffff" stroke="none" />
    <path d="M 54.5 787  A 13.5 13.5 0 0 1 68 773.5 L 196 773.5  A 13.5 13.5 0 0 1 209.5 787 A 13.5 13.5 0 0 1 196 800.5 L 68 800.5  A 13.5 13.5 0 0 1 54.5 787 Z " stroke-width="1" stroke="url(#LinearGradient257)" fill="none" />
  </g>
</svg>