<?xml version="1.0" encoding="utf-8"?>
<svg version="1.1" xmlns:xlink="http://www.w3.org/1999/xlink" width="278px" height="67px" xmlns="http://www.w3.org/2000/svg">
  <g transform="matrix(1 0 0 1 -829 -276 )">
    <path d="M 830 279  A 2 2 0 0 1 832 277 L 1104 277  A 2 2 0 0 1 1106 279 L 1106 340  A 2 2 0 0 1 1104 342 L 832 342  A 2 2 0 0 1 830 340 L 830 279  Z " fill-rule="nonzero" fill="#ffffff" stroke="none" />
    <path d="M 829.5 279  A 2.5 2.5 0 0 1 832 276.5 L 1104 276.5  A 2.5 2.5 0 0 1 1106.5 279 L 1106.5 340  A 2.5 2.5 0 0 1 1104 342.5 L 832 342.5  A 2.5 2.5 0 0 1 829.5 340 L 829.5 279  Z " stroke-width="1" stroke-dasharray="3,1" stroke="#797979" fill="none" stroke-dashoffset="0.5" />
  </g>
</svg>