<?xml version="1.0" encoding="utf-8"?>
<svg version="1.1" xmlns:xlink="http://www.w3.org/1999/xlink" width="70px" height="67px" xmlns="http://www.w3.org/2000/svg">
  <g transform="matrix(1 0 0 1 -348 -540 )">
    <path d="M 349 543  A 2 2 0 0 1 351 541 L 415 541  A 2 2 0 0 1 417 543 L 417 604  A 2 2 0 0 1 415 606 L 351 606  A 2 2 0 0 1 349 604 L 349 543  Z " fill-rule="nonzero" fill="#ffffff" stroke="none" />
    <path d="M 348.5 543  A 2.5 2.5 0 0 1 351 540.5 L 415 540.5  A 2.5 2.5 0 0 1 417.5 543 L 417.5 604  A 2.5 2.5 0 0 1 415 606.5 L 351 606.5  A 2.5 2.5 0 0 1 348.5 604 L 348.5 543  Z " stroke-width="1" stroke-dasharray="3,1" stroke="#797979" fill="none" stroke-dashoffset="0.5" />
  </g>
</svg>