<?xml version="1.0" encoding="utf-8"?>
<svg version="1.1" xmlns:xlink="http://www.w3.org/1999/xlink" width="758px" height="32px" xmlns="http://www.w3.org/2000/svg">
  <g transform="matrix(1 0 0 1 -348 -1062 )">
    <path d="M 349 1064  A 1 1 0 0 1 350 1063 L 1104 1063  A 1 1 0 0 1 1105 1064 L 1105 1092  A 1 1 0 0 1 1104 1093 L 350 1093  A 1 1 0 0 1 349 1092 L 349 1064  Z " fill-rule="nonzero" fill="#ffffff" stroke="none" />
    <path d="M 348.5 1064  A 1.5 1.5 0 0 1 350 1062.5 L 1104 1062.5  A 1.5 1.5 0 0 1 1105.5 1064 L 1105.5 1092  A 1.5 1.5 0 0 1 1104 1093.5 L 350 1093.5  A 1.5 1.5 0 0 1 348.5 1092 L 348.5 1064  Z " stroke-width="1" stroke-dasharray="3,1" stroke="#cccccc" fill="none" stroke-dashoffset="0.5" />
  </g>
</svg>