<?xml version="1.0" encoding="utf-8"?>
<svg version="1.1" xmlns:xlink="http://www.w3.org/1999/xlink" width="27px" height="26px" xmlns="http://www.w3.org/2000/svg">
  <defs>
    <linearGradient gradientUnits="userSpaceOnUse" x1="966.315015244752" y1="386.794319071061" x2="968.684984755248" y2="425.205680928939" id="LinearGradient834">
      <stop id="Stop835" stop-color="#409eff" offset="0" />
      <stop id="Stop836" stop-color="#409eff" offset="0.5" />
      <stop id="Stop837" stop-color="#0066ff" offset="1" />
    </linearGradient>
    <linearGradient gradientUnits="userSpaceOnUse" x1="966.315015244752" y1="386.794319071061" x2="968.684984755248" y2="425.205680928939" id="LinearGradient838">
      <stop id="Stop839" stop-color="#409eff" offset="0" />
      <stop id="Stop840" stop-color="#409eff" offset="0.5" />
      <stop id="Stop841" stop-color="#0066ff" offset="1" />
    </linearGradient>
  </defs>
  <g transform="matrix(1 0 0 1 -954 -393 )">
    <path d="M 954.5 395  A 1.5 1.5 0 0 1 956 393.5 L 979 393.5  A 1.5 1.5 0 0 1 980.5 395 L 980.5 417  A 1.5 1.5 0 0 1 979 418.5 L 956 418.5  A 1.5 1.5 0 0 1 954.5 417 L 954.5 395  Z " fill-rule="nonzero" fill="url(#LinearGradient834)" stroke="none" />
    <path d="M 954.5 395  A 1.5 1.5 0 0 1 956 393.5 L 979 393.5  A 1.5 1.5 0 0 1 980.5 395 L 980.5 417  A 1.5 1.5 0 0 1 979 418.5 L 956 418.5  A 1.5 1.5 0 0 1 954.5 417 L 954.5 395  Z " stroke-width="1" stroke="url(#LinearGradient838)" fill="none" />
  </g>
</svg>