<?xml version="1.0" encoding="utf-8"?>
<svg version="1.1" xmlns:xlink="http://www.w3.org/1999/xlink" width="78px" height="26px" xmlns="http://www.w3.org/2000/svg">
  <defs>
    <linearGradient gradientUnits="userSpaceOnUse" x1="789.57671070706" y1="386.794319071061" x2="796.42328929294" y2="425.205680928939" id="LinearGradient1125">
      <stop id="Stop1126" stop-color="#409eff" offset="0" />
      <stop id="Stop1127" stop-color="#409eff" offset="0.5" />
      <stop id="Stop1128" stop-color="#0066ff" offset="1" />
    </linearGradient>
  </defs>
  <g transform="matrix(1 0 0 1 -754 -393 )">
    <path d="M 754.5 395  A 1.5 1.5 0 0 1 756 393.5 L 830 393.5  A 1.5 1.5 0 0 1 831.5 395 L 831.5 417  A 1.5 1.5 0 0 1 830 418.5 L 756 418.5  A 1.5 1.5 0 0 1 754.5 417 L 754.5 395  Z " fill-rule="nonzero" fill="#ffffff" stroke="none" />
    <path d="M 754.5 395  A 1.5 1.5 0 0 1 756 393.5 L 830 393.5  A 1.5 1.5 0 0 1 831.5 395 L 831.5 417  A 1.5 1.5 0 0 1 830 418.5 L 756 418.5  A 1.5 1.5 0 0 1 754.5 417 L 754.5 395  Z " stroke-width="1" stroke="url(#LinearGradient1125)" fill="none" />
  </g>
</svg>