<?xml version="1.0" encoding="utf-8"?>
<svg version="1.1" xmlns:xlink="http://www.w3.org/1999/xlink" width="41px" height="26px" xmlns="http://www.w3.org/2000/svg">
  <defs>
    <linearGradient gradientUnits="userSpaceOnUse" x1="855.700578704993" y1="386.794319071061" x2="859.299421295007" y2="425.205680928939" id="LinearGradient1129">
      <stop id="Stop1130" stop-color="#409eff" offset="0" />
      <stop id="Stop1131" stop-color="#409eff" offset="0.5" />
      <stop id="Stop1132" stop-color="#0066ff" offset="1" />
    </linearGradient>
  </defs>
  <g transform="matrix(1 0 0 1 -837 -393 )">
    <path d="M 837.5 395  A 1.5 1.5 0 0 1 839 393.5 L 876 393.5  A 1.5 1.5 0 0 1 877.5 395 L 877.5 417  A 1.5 1.5 0 0 1 876 418.5 L 839 418.5  A 1.5 1.5 0 0 1 837.5 417 L 837.5 395  Z " fill-rule="nonzero" fill="#ffffff" stroke="none" />
    <path d="M 837.5 395  A 1.5 1.5 0 0 1 839 393.5 L 876 393.5  A 1.5 1.5 0 0 1 877.5 395 L 877.5 417  A 1.5 1.5 0 0 1 876 418.5 L 839 418.5  A 1.5 1.5 0 0 1 837.5 417 L 837.5 395  Z " stroke-width="1" stroke="url(#LinearGradient1129)" fill="none" />
  </g>
</svg>