<?xml version="1.0" encoding="utf-8"?>
<svg version="1.1" xmlns:xlink="http://www.w3.org/1999/xlink" width="56px" height="26px" xmlns="http://www.w3.org/2000/svg">
  <defs>
    <linearGradient gradientUnits="userSpaceOnUse" x1="913.542253840966" y1="386.794319071061" x2="918.457746159034" y2="425.205680928939" id="LinearGradient264">
      <stop id="Stop265" stop-color="#409eff" offset="0" />
      <stop id="Stop266" stop-color="#409eff" offset="0.5" />
      <stop id="Stop267" stop-color="#0066ff" offset="1" />
    </linearGradient>
  </defs>
  <g transform="matrix(1 0 0 1 -888 -393 )">
    <path d="M 888.5 395  A 1.5 1.5 0 0 1 890 393.5 L 942 393.5  A 1.5 1.5 0 0 1 943.5 395 L 943.5 417  A 1.5 1.5 0 0 1 942 418.5 L 890 418.5  A 1.5 1.5 0 0 1 888.5 417 L 888.5 395  Z " fill-rule="nonzero" fill="#ffffff" stroke="none" />
    <path d="M 888.5 395  A 1.5 1.5 0 0 1 890 393.5 L 942 393.5  A 1.5 1.5 0 0 1 943.5 395 L 943.5 417  A 1.5 1.5 0 0 1 942 418.5 L 890 418.5  A 1.5 1.5 0 0 1 888.5 417 L 888.5 395  Z " stroke-width="1" stroke="url(#LinearGradient264)" fill="none" />
  </g>
</svg>