<?xml version="1.0" encoding="utf-8"?>
<svg version="1.1" xmlns:xlink="http://www.w3.org/1999/xlink" width="74px" height="74px" xmlns="http://www.w3.org/2000/svg">
  <g transform="matrix(1 0 0 1 -65 -568 )">
    <path d="M 66 572  A 3 3 0 0 1 69 569 L 135 569  A 3 3 0 0 1 138 572 L 138 638  A 3 3 0 0 1 135 641 L 69 641  A 3 3 0 0 1 66 638 L 66 572  Z " fill-rule="nonzero" fill="#ffffff" stroke="none" />
    <path d="M 65.5 572  A 3.5 3.5 0 0 1 69 568.5 L 135 568.5  A 3.5 3.5 0 0 1 138.5 572 L 138.5 638  A 3.5 3.5 0 0 1 135 641.5 L 69 641.5  A 3.5 3.5 0 0 1 65.5 638 L 65.5 572  Z " stroke-width="1" stroke-dasharray="1,1" stroke="#797979" fill="none" stroke-dashoffset="0.5" />
  </g>
</svg>