<?xml version="1.0" encoding="utf-8"?>
<svg version="1.1" xmlns:xlink="http://www.w3.org/1999/xlink" width="112px" height="37px" xmlns="http://www.w3.org/2000/svg">
  <g transform="matrix(1 0 0 1 -986 -471 )">
    <path d="M 988 474  A 1 1 0 0 1 989 473 L 1095 473  A 1 1 0 0 1 1096 474 L 1096 505  A 1 1 0 0 1 1095 506 L 989 506  A 1 1 0 0 1 988 505 L 988 474  Z " fill-rule="nonzero" fill="#ffffff" stroke="none" />
    <path d="M 987 474  A 2 2 0 0 1 989 472 L 1095 472  A 2 2 0 0 1 1097 474 L 1097 505  A 2 2 0 0 1 1095 507 L 989 507  A 2 2 0 0 1 987 505 L 987 474  Z " stroke-width="2" stroke-dasharray="6,2" stroke="#d7d7d7" fill="none" />
  </g>
</svg>