<?xml version="1.0" encoding="utf-8"?>
<svg version="1.1" xmlns:xlink="http://www.w3.org/1999/xlink" width="87px" height="114px" xmlns="http://www.w3.org/2000/svg">
  <g transform="matrix(1 0 0 1 -998 -242 )">
    <path d="M 1000 245  A 1 1 0 0 1 1001 244 L 1082 244  A 1 1 0 0 1 1083 245 L 1083 353  A 1 1 0 0 1 1082 354 L 1001 354  A 1 1 0 0 1 1000 353 L 1000 245  Z " fill-rule="nonzero" fill="#ffffff" stroke="none" />
    <path d="M 999 245  A 2 2 0 0 1 1001 243 L 1082 243  A 2 2 0 0 1 1084 245 L 1084 353  A 2 2 0 0 1 1082 355 L 1001 355  A 2 2 0 0 1 999 353 L 999 245  Z " stroke-width="2" stroke-dasharray="6,2" stroke="#d7d7d7" fill="none" />
  </g>
</svg>