<svg t="1608800382033" class="icon" viewBox="0 0 1024 1024" version="1.1" xmlns="http://www.w3.org/2000/svg" p-id="12679" width="200" height="200"><path d="M432 550.4h40v78.4h-113.6v73.6h113.6v78.4h78.4V704h40c65.6 0 113.6-54.4 113.6-118.4 0-65.6-54.4-118.4-113.6-118.4h-40v-70.4h113.6v-78.4h-113.6V240h-78.4v78.4h-40c-65.6 0-113.6 54.4-113.6 118.4-1.6 64 49.6 113.6 113.6 113.6z m118.4 0h40c19.2 0 40 19.2 40 40s-19.2 40-40 40h-40v-80z m-118.4-153.6h40v78.4h-40c-19.2 0-40-19.2-40-40 4.8-24 19.2-38.4 40-38.4z" fill="#d81e06" p-id="12680"></path><path d="M512 1024c-281.6 0-512-230.4-512-512s230.4-512 512-512 512 230.4 512 512-230.4 512-512 512z m0-960c-246.4 0-448 201.6-448 448s201.6 448 448 448 448-201.6 448-448-201.6-448-448-448z" fill="#d81e06" p-id="12681"></path></svg>