<?xml version="1.0" encoding="utf-8"?>
<svg version="1.1" xmlns:xlink="http://www.w3.org/1999/xlink" width="51px" height="10px" preserveAspectRatio="xMinYMid meet" viewBox="804 888  51 8" xmlns="http://www.w3.org/2000/svg">
  <path d="M 804 892.5  L 845 892.5  A 5 5 0 0 0 850.5 887 L 850.5 673  A 3 3 0 0 0 853.5 670 A 3 3 0 0 0 850.5 667 L 850.5 617  A 3 3 0 0 0 853.5 614 A 3 3 0 0 0 850.5 611 L 850.5 557  A 5 5 0 0 0 845.5 552.5 L 687 552.5  " stroke-width="1" stroke-dasharray="3,1" stroke="#7f7f7f" fill="none" />
  <path d="M 692.7 546.5  L 686 552.5  L 692.7 558.5  L 690.4 552.5  L 692.7 546.5  Z " fill-rule="nonzero" fill="#7f7f7f" stroke="none" />
</svg>