<?xml version="1.0" encoding="utf-8"?>
<svg version="1.1" xmlns:xlink="http://www.w3.org/1999/xlink" width="12px" height="12px" viewBox="855 182  12 12" xmlns="http://www.w3.org/2000/svg">
  <path d="M 861 182  C 864.36 182  867 184.64  867 188  C 867 191.36  864.36 194  861 194  C 857.64 194  855 191.36  855 188  C 855 184.64  857.64 182  861 182  Z " fill-rule="nonzero" fill="#ffffff" stroke="none" />
  <path d="M 861 182.5  C 864.08 182.5  866.5 184.92  866.5 188  C 866.5 191.08  864.08 193.5  861 193.5  C 857.92 193.5  855.5 191.08  855.5 188  C 855.5 184.92  857.92 182.5  861 182.5  Z " stroke-width="1" stroke="#797979" fill="none" />
  <path d="M 861 191  C 859.32 191  858 189.68  858 188  C 858 186.32  859.32 185  861 185  C 862.68 185  864 186.32  864 188  C 864 189.68  862.68 191  861 191  " fill-rule="nonzero" fill="#797979" stroke="none" />
</svg>