<?xml version="1.0" encoding="utf-8"?>
<svg version="1.1" xmlns:xlink="http://www.w3.org/1999/xlink" width="162px" height="28px" xmlns="http://www.w3.org/2000/svg">
  <defs>
    <linearGradient gradientUnits="userSpaceOnUse" x1="143" y1="774" x2="143" y2="802" id="LinearGradient484">
      <stop id="Stop485" stop-color="#1e80ff" offset="0" />
      <stop id="Stop486" stop-color="#409eff" offset="1" />
    </linearGradient>
  </defs>
  <g transform="matrix(1 0 0 1 -62 -774 )">
    <path d="M 62.5 777  A 2.5 2.5 0 0 1 65 774.5 L 221 774.5  A 2.5 2.5 0 0 1 223.5 777 L 223.5 799  A 2.5 2.5 0 0 1 221 801.5 L 65 801.5  A 2.5 2.5 0 0 1 62.5 799 L 62.5 777  Z " fill-rule="nonzero" fill="#ffffff" stroke="none" />
    <path d="M 62.5 777  A 2.5 2.5 0 0 1 65 774.5 L 221 774.5  A 2.5 2.5 0 0 1 223.5 777 L 223.5 799  A 2.5 2.5 0 0 1 221 801.5 L 65 801.5  A 2.5 2.5 0 0 1 62.5 799 L 62.5 777  Z " stroke-width="1" stroke="url(#LinearGradient484)" fill="none" />
  </g>
</svg>