<svg t="1608881448691" class="icon" viewBox="0 0 1024 1024" version="1.1" xmlns="http://www.w3.org/2000/svg" p-id="1717" width="200" height="200"><path d="M724.50048 767.24224H304.64V530.432H203.44832l311.11168-287.88736L825.67168 530.432h-101.1712v236.81024z m-368.66048-51.2h317.46048V479.232h21.66784l-180.40832-166.93248-180.40832 166.93248h21.66784v236.81024z" fill="#d4237a" p-id="1718"></path><path d="M587.71456 600.49408c-15.40096-6.92224-9.46176-1.61792-28.3648-8.704-18.90304-7.0656-23.38816-9.37984-23.38816-9.37984l1.08544-12.34944s17.36704-5.40672 20.62336-26.58304c6.53312 1.59744 8.72448-6.4512 9.09312-11.61216 0.38912-4.97664 3.85024-20.45952-4.11648-19.08736 1.6384-10.3424 2.90816-19.70176 2.33472-24.65792-1.98656-17.38752-16.22016-35.5328-52.14208-36.84352a71.72096 71.72096 0 0 0-23.63392 4.93568c-2.64192 1.06496-19.84512-1.08544-22.15936 3.60448-1.24928 2.56 2.60096 10.32192 0.53248 12.00128-8.41728 6.7584-6.144 7.94624-7.12704 16.32256-0.57344 4.95616 0.59392 14.29504 2.23232 24.65792-7.9872-1.39264-4.54656 14.1312-4.1984 19.08736 0.38912 5.14048 2.53952 13.23008 9.09312 11.63264 3.25632 21.17632 24.4736 26.60352 24.4736 26.60352l1.10592 12.43136s-4.48512 2.4576-23.38816 9.5232c-18.90304 7.08608-12.98432 1.47456-28.3648 8.37632-24.33024 10.93632-24.33024 40.98048-24.33024 40.98048v0.02048c0 4.54656 4.096 8.25344 9.13408 8.25344h176.70144c5.03808 0 9.13408-3.6864 9.13408-8.25344v-0.02048c0 0.02048 0-30.02368-24.33024-40.93952z" fill="#d4237a" opacity=".5" p-id="1719"></path></svg>